# xmcd
#
# Track frame offsets: 
#        150
#        11747
#        23027
#        39282
#        54412
#        70595
#        84135
#        97917
#        111172
#        129045
#
# Disc length: 1939 seconds
#
# Revision: 0
# Processed by: cddbd v1.5.2PL0 Copyright (c) Steve Scherf et al.
# Submitted via: ExactAudioCopy v0.95b4
#
DISCID=6507910a
DTITLE=alan jackson - lot about livin' (and a little 'bout love)
DYEAR=1992
DGENRE=Country
TTITLE0=chattahoochee
TTITLE1=she's got the rhythm (and i got the blues)
TTITLE2=tonight i climbed the wall
TTITLE3=i don't need the booze (to get a buzz on)
TTITLE4=you can't have it all (who says)
TTITLE5=up to my ears in tears
TTITLE6=tropical depression
TTITLE7=she likes it too
TTITLE8=if it ain't one thing (it's you)
TTITLE9=mercury blues
EXTD=
EXTT0=
EXTT1=
EXTT2=
EXTT3=
EXTT4=
EXTT5=
EXTT6=
EXTT7=
EXTT8=
EXTT9=
PLAYORDER=
